<svg xmlns="http://www.w3.org/2000/svg" xmlns:xlink="http://www.w3.org/1999/xlink" width="68" height="68" viewBox="0 0 68 68">
    <defs>
        <path id="gfkxxjcfia" d="M.5 0h8.816c.062 1.193-.38 2.356-1.219 3.206-.838.85-1.996 1.309-3.189 1.263-1.178-.004-2.306-.479-3.134-1.317C.947 2.312.488 1.178.5 0z"/>
    </defs>
    <g fill="none" fill-rule="evenodd">
        <g>
            <g>
                <g transform="translate(-809 -156) translate(792 156) translate(17)">
                    <circle cx="34" cy="34" r="34" fill="#EAF2FC"/>
                    <g transform="translate(13.852 8.815)">
                        <path fill="#FFC400" fill-rule="nonzero" d="M34.093 18.54c.03-1.127-.47-2.204-1.35-2.908-2.476-2.074-4.948-4.15-7.416-6.229-.64-.552-1.458-.853-2.303-.848-3.577-.03-7.152-.074-10.73-.102-.96-.046-1.895.316-2.576.995-.68.68-1.043 1.614-.999 2.575-.005 4.382-.005 8.764-.001 13.146l.001 13.147c-.06 1.522.905 2.896 2.357 3.357.406.122.827.181 1.25.176 6.055.01 12.11.012 18.165.005.973.055 1.922-.308 2.61-.997.688-.69 1.047-1.641.99-2.613l.002-19.704z"/>
                        <ellipse cx="25.533" cy="22.704" fill="#2F3043" fill-rule="nonzero" rx="1.12" ry="1.709"/>
                        <ellipse cx="17.277" cy="22.704" fill="#2F3043" fill-rule="nonzero" rx="1.12" ry="1.709"/>
                        <g transform="translate(16.637 27.215)">
                            <mask id="0cpcghkwib" fill="#fff">
                                <use xlink:href="#gfkxxjcfia"/>
                            </mask>
                            <use fill="#2F3043" fill-rule="nonzero" xlink:href="#gfkxxjcfia"/>
                            <g fill="#EB2737" mask="url(#0cpcghkwib)">
                                <path d="M9.206 2.75c0-1.273-1.924-2.305-4.298-2.305S.61 1.477.61 2.75h8.596z" transform="translate(0 2.71)"/>
                            </g>
                        </g>
                        <path fill="#2F3043" fill-rule="nonzero" d="M5.032 8.16l3.735 4.972c2.403-2.433 5.51-4.05 8.881-4.625-.939-2.712-1.87-5.8-1.87-5.8L14.01 7.019l-4.5-3.234.223 5.508L5.032 8.16z"/>
                        <circle cx="4.156" cy="7.45" r="1" fill="#2F3043" fill-rule="nonzero"/>
                        <circle cx="15.576" cy="1.406" r="1" fill="#2F3043" fill-rule="nonzero"/>
                        <circle cx="9.003" cy="2.749" r="1" fill="#2F3043" fill-rule="nonzero"/>
                        <path fill="#F63C52" d="M8.891 47.624L0.902 47.689 3.285 43.577 0.389 39.855 8.891 39.691z"/>
                        <path fill="#D22036" d="M8.891 43.765L4.913 45.119 8.237 47.213 8.891 47.624z"/>
                        <path fill="#F63C52" d="M33.909 34.275L41.897 34.211 39.514 38.323 42.409 42.045 33.909 42.208z"/>
                        <path fill="#D22036" d="M33.909 38.134L37.886 36.781 34.562 34.687 33.909 34.275z"/>
                        <path fill="#EB2737" d="M6.332 36.934l31.768-.153-.059 5.76c-.016 1.603-1.007 2.086-1.651 2.107l-31.477.471.012-5.975c0-1.195-.076-2.194 1.407-2.21z"/>
                    </g>
                </g>
            </g>
        </g>
    </g>
</svg>
