<svg xmlns="http://www.w3.org/2000/svg" xmlns:xlink="http://www.w3.org/1999/xlink" width="68" height="68" viewBox="0 0 68 68">
    <defs>
        <path id="2mc820m5za" d="M.49 0H9.14c.06 1.17-.373 2.311-1.196 3.145-.822.834-1.958 1.284-3.128 1.239-1.156-.004-2.263-.47-3.075-1.292C.93 2.269.48 1.156.49 0z"/>
    </defs>
    <g fill="none" fill-rule="evenodd">
        <g>
            <g>
                <g fill="#EAF2FC" opacity=".7" transform="translate(-368 -318) translate(368 318)">
                    <circle cx="34" cy="34" r="34"/>
                </g>
                <g transform="translate(-368 -318) translate(368 318) translate(14 9)">
                    <path fill="#FFC400" fill-rule="nonzero" d="M33.445 18.187c.029-1.106-.462-2.162-1.326-2.853-2.428-2.034-4.853-4.07-7.274-6.11-.628-.541-1.43-.837-2.26-.832-3.508-.03-7.015-.072-10.524-.1-.943-.045-1.86.31-2.528.976-.667.667-1.023 1.584-.98 2.526-.005 4.298-.005 8.597-.001 12.896l.001 12.896c-.058 1.494.888 2.842 2.312 3.294.398.12.812.178 1.227.173 5.939.01 11.879.011 17.819.005.954.054 1.885-.302 2.56-.979s1.028-1.61.97-2.563l.004-19.329z"/>
                    <ellipse cx="25.047" cy="22.272" fill="#2F3043" fill-rule="nonzero" rx="1.098" ry="1.676"/>
                    <ellipse cx="16.948" cy="22.272" fill="#2F3043" fill-rule="nonzero" rx="1.098" ry="1.676"/>
                    <g transform="translate(16.32 26.697)">
                        <mask id="h5emle8lnb" fill="#fff">
                            <use xlink:href="#2mc820m5za"/>
                        </mask>
                        <use fill="#2F3043" fill-rule="nonzero" xlink:href="#2mc820m5za"/>
                        <g fill="#EB2737" mask="url(#h5emle8lnb)">
                            <path d="M9.03 2.698C9.03 1.449 7.144.437 4.816.437 2.485.437.598 1.449.598 2.697h8.433z" transform="translate(0 2.658)"/>
                        </g>
                    </g>
                    <path fill="#2F3043" fill-rule="nonzero" d="M4.936 8.004L8.6 12.882c2.358-2.387 5.405-3.973 8.712-4.537-.92-2.66-1.835-5.69-1.835-5.69l-1.733 4.23L9.33 3.713l.218 5.403-4.612-1.112z"/>
                    <circle cx="4.077" cy="7.308" r="1" fill="#2F3043" fill-rule="nonzero"/>
                    <circle cx="15.279" cy="1.38" r="1" fill="#2F3043" fill-rule="nonzero"/>
                    <circle cx="8.832" cy="2.696" r="1" fill="#2F3043" fill-rule="nonzero"/>
                    <path fill="#F63C52" d="M8.721 46.718L0.885 46.781 3.222 42.747 0.382 39.096 8.721 38.936z"/>
                    <path fill="#D22036" d="M8.721 42.932L4.819 44.26 8.08 46.315 8.721 46.718z"/>
                    <path fill="#F63C52" d="M33.263 33.623L41.1 33.56 38.762 37.593 41.602 41.245 33.263 41.405z"/>
                    <path fill="#D22036" d="M33.263 37.409L37.165 36.081 33.905 34.027 33.263 33.623z"/>
                    <path fill="#EB2737" d="M6.212 36.231l31.163-.15-.058 5.65c-.016 1.573-.988 2.046-1.62 2.068L4.82 44.26l.013-5.86c0-1.173-.076-2.153 1.38-2.169z"/>
                </g>
            </g>
        </g>
    </g>
</svg>
