<svg xmlns="http://www.w3.org/2000/svg" width="68" height="68" viewBox="0 0 68 68">
    <g fill="none" fill-rule="evenodd">
        <g>
            <g>
                <g>
                    <g>
                        <g fill="#EAF2FC" transform="translate(-990 -156) translate(792 156) translate(181) translate(17)">
                            <circle cx="34" cy="34" r="34"/>
                        </g>
                        <g fill-rule="nonzero" transform="translate(-990 -156) translate(792 156) translate(181) translate(17) translate(16.37 16.37)">
                            <path fill="#FFB900" d="M1.462 35.535c-.383 0-.75-.152-1.02-.422s-.423-.637-.423-1.02v-32.6c0-.382.152-.749.423-1.02.27-.27.637-.421 1.02-.421h26.252c.382 0 .75.151 1.02.422.27.27.422.637.422 1.02v32.6c0 .382-.152.749-.422 1.019-.27.27-.638.422-1.02.422H1.462z"/>
                            <circle cx="14.588" cy="9.86" r="5.914" fill="#FFF"/>
                            <path fill="#2F3047" d="M16.463 9.103v.469c0 1.035-.84 1.874-1.875 1.874-1.036 0-1.875-.839-1.876-1.874v-.47c0-1.035.84-1.874 1.876-1.874.497 0 .974.197 1.326.549.352.352.55.829.55 1.326zM14.588 11.446c-1.779 0-3.376 1.089-4.027 2.744 2.27 2.112 5.784 2.112 8.053 0-.65-1.655-2.248-2.743-4.026-2.744zM23.117 30.991H12.408c-.262-.007-.508.129-.641.355-.134.226-.134.507 0 .733.133.226.379.362.641.354h10.709c.262.008.508-.128.641-.354.134-.226.134-.507 0-.733-.133-.226-.379-.362-.641-.355zM23.117 26.952H6.06c-.262-.007-.508.129-.641.355-.134.226-.134.507 0 .733.133.226.379.362.641.355h17.056c.262.007.508-.129.641-.355.134-.226.134-.507 0-.733-.133-.226-.379-.362-.641-.355zM23.117 22.913H6.06c-.398 0-.721.323-.721.721 0 .399.323.722.721.722h17.056c.398 0 .72-.323.72-.722 0-.398-.322-.72-.72-.72zM23.117 18.874H6.06c-.398 0-.721.323-.721.722 0 .398.323.721.721.721h17.056c.398 0 .72-.323.72-.721 0-.399-.322-.722-.72-.722z"/>
                            <path fill="#FCE8CD" d="M21.267 22.906L26.89 27.621 21.528 29.974 19.311 30.949 19.883 28.596z"/>
                            <path fill="#2F3047" d="M19.884 28.596L21.529 29.974 19.312 30.948z"/>
                            <path fill="#FF002B" d="M31.558 8.069H34.004V29.314999999999998H31.558z" transform="rotate(-140.02 32.781 18.692)"/>
                            <path fill="#FFC600" d="M29.684 6.498H32.13V27.744H29.684z" transform="rotate(-140.02 30.907 17.121)"/>
                            <path fill="#FF002B" d="M27.809 4.927H30.255000000000003V26.173H27.809z" transform="rotate(-140.02 29.032 15.55)"/>
                            <path fill="#2F3047" d="M34.928 5.762h7.338V8.37c0 .975-.792 1.764-1.766 1.764h-3.806c-.975 0-1.766-.79-1.766-1.765V5.76v.002z" transform="rotate(-140.02 38.597 7.947)"/>
                            <path fill="#FCE8CD" d="M26.89 27.621c0-.1.042-.74-.43-1.183-.618-.58-1.408-.4-1.444-.388M25.016 26.05c.003-.101.042-.742-.43-1.184-.618-.58-1.409-.4-1.445-.389"/>
                            <path fill="#FCE8CD" d="M23.142 24.478c0-.1.042-.742-.43-1.184-.619-.579-1.409-.4-1.445-.388"/>
                            <circle cx="14.588" cy="9.337" r="2.109" fill="#2F3047"/>
                        </g>
                    </g>
                </g>
            </g>
        </g>
    </g>
</svg>
