<svg xmlns="http://www.w3.org/2000/svg" xmlns:xlink="http://www.w3.org/1999/xlink" width="69" height="68" viewBox="0 0 69 68">
    <defs>
        <path id="250zq1vy4a" d="M.129 0h9.5c0 4.555-4.108 4.817-4.748 4.817C4.241 4.817.176 4.34.13 0z"/>
    </defs>
    <g fill="none" fill-rule="evenodd">
        <g>
            <g>
                <g>
                    <g fill="#EAF2FC" transform="translate(-809 -156) translate(795 156) translate(14.5)">
                        <circle cx="34" cy="34" r="34"/>
                    </g>
                    <g transform="translate(-809 -156) translate(795 156) translate(14.5) translate(15.111 10.074)">
                        <path fill="#FFB600" fill-rule="nonzero" d="M37.409 10.874c.035-1.215-.505-2.376-1.456-3.133-2.67-2.233-5.334-4.47-7.993-6.715-.69-.593-1.571-.918-2.481-.914C21.615.082 17.75.035 13.913.005c-1.04-.053-2.053.338-2.79 1.074-.735.736-1.126 1.75-1.073 2.79v28.333c-.064 1.64.976 3.121 2.541 3.619.437.13.892.196 1.348.193h19.58c2.331 0 3.864-1.567 3.864-3.894.02-7.083.028-14.165.026-21.246z"/>
                        <ellipse cx="28.183" cy="15.365" fill="#2F3043" fill-rule="nonzero" rx="1.206" ry="1.842"/>
                        <ellipse cx="19.284" cy="15.365" fill="#2F3043" fill-rule="nonzero" rx="1.206" ry="1.842"/>
                        <g transform="translate(19.005 20.224)">
                            <mask id="2wwg1fty0b" fill="#fff">
                                <use xlink:href="#250zq1vy4a"/>
                            </mask>
                            <use fill="#2F3043" fill-rule="nonzero" xlink:href="#250zq1vy4a"/>
                            <g fill="#D32B35" mask="url(#2wwg1fty0b)">
                                <path d="M9.513 2.808C9.513 1.434 7.44.322 4.881.322 2.322.322.245 1.434.245 2.808h9.268z" transform="translate(0 3.078)"/>
                            </g>
                        </g>
                        <path fill="#B21E34" fill-rule="nonzero" d="M3.743 45.742c-.2-.092-.393-.2-.575-.327C1.627 44.355.88 42.178.936 39.56l4.722 2.146c-.056 2.619.691 4.795 2.232 5.856.182.126.374.235.576.326l-4.723-2.146"/>
                        <path fill="#2F3043" fill-rule="nonzero" d="M0 33.176v7.186c0 .913.74 1.653 1.653 1.653h11.282c.438 0 .858-.174 1.168-.484.31-.31.484-.73.484-1.169V21.967l-3.516-3.52h-9.35c-.91.002-1.648.738-1.652 1.649L0 33.176z"/>
                        <rect width="11.303" height="11.084" x="1.777" y="29.008" fill="#FFF" fill-rule="nonzero" rx="1.79"/>
                        <path fill="#2F3043" fill-rule="nonzero" d="M9.56 32.996H5.152c-.188 0-.369-.075-.501-.208-.133-.132-.208-.313-.208-.5v-3.482h5.839v3.481c-.002.19-.078.372-.214.505-.135.133-.318.206-.508.204zm-4.997-4.07v3.361c0 .156.062.306.173.416.11.11.26.173.416.173H9.56c.325 0 .588-.264.588-.589v-3.36H4.563zM10.282 40.25H4.443v-3.433c-.001-.19.073-.37.206-.504s.314-.21.503-.21H9.56c.394 0 .713.32.713.714l.009 3.434zm-5.719-.12h5.581v-3.322c.001-.156-.06-.306-.169-.417-.11-.111-.259-.174-.415-.175H5.152c-.326.002-.589.266-.589.592v3.323z"/>
                        <path fill="#2F3043" fill-rule="nonzero" d="M5.675 32.936H6.675V36.156H5.675z"/>
                        <path fill="#2F3043" fill-rule="nonzero" d="M1.786 34.524H5.723V35.524H1.786zM8.934 32.936H9.934V36.134H8.934z"/>
                        <path fill="#2F3043" fill-rule="nonzero" d="M9.007 34.524H13.123999999999999V35.524H9.007z"/>
                        <path fill="#E42B35" fill-rule="nonzero" d="M12.42 37.976l2.189.987c-2.576 3.31-7.028 8.685-10.866 6.779l4.723 2.146c3.125 1.55 9.607-4.246 10.865-6.779l2.185.988c.55-4.418.33-7.453-.803-11.188-3.734 4.547-7.057 6.384-8.306 7.075"/>
                    </g>
                </g>
            </g>
        </g>
    </g>
</svg>
