<svg xmlns="http://www.w3.org/2000/svg" xmlns:xlink="http://www.w3.org/1999/xlink" width="64" height="84" viewBox="0 0 64 84">
    <defs>
        <path id="16ikhh70ya" d="M.028 0h22.19c.156 2.992-.958 5.912-3.068 8.045-2.11 2.133-5.024 3.282-8.028 3.168-2.965-.011-5.804-1.2-7.887-3.306C1.152 5.802-.002 2.957.028 0z"/>
    </defs>
    <g fill="none" fill-rule="evenodd">
        <g>
            <g>
                <g transform="translate(-996.000000, -277.000000) translate(976.000000, 277.000000) translate(20.000000, 0.000000)">
                    <path fill="#FFC400" fill-rule="nonzero" d="M63.877 25.319c.074-2.829-1.184-5.53-3.401-7.297C54.245 12.82 48.023 7.61 41.812 2.394 40.2 1.01 38.142.254 36.015.266 27.012.191 18.013.081 9.01.01 6.592-.104 4.238.802 2.525 2.507.813 4.212-.1 6.557.011 8.967-.002 19.962-.003 30.957.006 41.953c0 10.993.002 21.988.005 32.984-.15 3.819 2.278 7.267 5.931 8.424 1.021.305 2.082.454 3.148.441 15.238.026 30.478.03 45.72.013 2.448.138 4.838-.772 6.568-2.503 1.731-1.73 2.637-4.116 2.49-6.556.004-16.477.007-32.956.009-49.436z"/>
                    <ellipse cx="42.33" cy="35.767" fill="#2F3043" fill-rule="nonzero" rx="2.818" ry="4.287"/>
                    <ellipse cx="21.551" cy="35.767" fill="#2F3043" fill-rule="nonzero" rx="2.818" ry="4.287"/>
                    <g transform="translate(21.170366, 47.084739)">
                        <mask id="8jqc14feab" fill="#fff">
                            <use xlink:href="#16ikhh70ya"/>
                        </mask>
                        <use fill="#2F3043" fill-rule="nonzero" xlink:href="#16ikhh70ya"/>
                        <g fill="#EB2737" mask="url(#8jqc14feab)">
                            <path d="M21.891 5.837c0-3.194-4.843-5.783-10.818-5.783S.255 2.643.255 5.837H21.891z" transform="translate(0.049231, 7.860742)"/>
                        </g>
                    </g>
                </g>
            </g>
        </g>
    </g>
</svg>
