<svg xmlns="http://www.w3.org/2000/svg" width="68" height="68" viewBox="0 0 68 68">
    <defs>
        <radialGradient id="eeohbb30ua" cx="50%" cy="50%" r="64.148%" fx="50%" fy="50%" gradientTransform="matrix(-.66054 0 0 -1 .83 1)">
            <stop offset="63.633%" stop-color="#FFC300"/>
            <stop offset="100%" stop-color="#FFB900"/>
        </radialGradient>
    </defs>
    <g fill="none" fill-rule="evenodd">
        <g>
            <g>
                <g>
                    <g fill="#EAF2FC" opacity=".7" transform="translate(-516 -318) translate(511 318) translate(5)">
                        <circle cx="34" cy="34" r="34"/>
                    </g>
                    <g fill-rule="nonzero">
                        <g>
                            <path fill="#1B1D28" d="M20.136 17.428c3.596.007 7.192.017 10.789.029.092 0 .19-.018.288-.026.051-.005.103-.005.154 0 .098.008.196.026.289.026 3.596-.017 7.192-.027 10.788-.03.252.03.48.163.63.368.148.205.204.463.154.712-.019.324-.001.65-.004.974-.007.862-.248 1.099-1.13 1.102-1.97.007-3.94.014-5.91.018-.296-.316-.611-.615-.943-.894v.302h-8.247c-.205.188-.404.386-.599.592l-5.91-.018c-.88-.003-1.122-.24-1.129-1.102-.002-.325.015-.65-.004-.974-.05-.249.006-.507.155-.712.15-.205.377-.338.63-.367zM28.217 30.538H25.08c.013 3.018 2.464 5.459 5.483 5.459 3.018 0 5.47-2.44 5.482-5.46h-3.135c-.01 1.29-1.058 2.329-2.347 2.329-1.29 0-2.337-1.04-2.347-2.328zM2.373 30.492l-1.571.046c.013 3.019 2.464 5.46 5.483 5.46 3.02 0 5.47-2.441 5.483-5.46l-3.133-.001c-.01 1.29-1.058 2.332-2.35 2.333-1.29 0-2.34-1.042-2.349-2.333l-1.563-.045z" transform="translate(-516 -318) translate(511 318) translate(5) translate(12 16)"/>
                            <path fill="url(#eeohbb30ua)" d="M.062 27.856c-.201-.354.235-1.846 1.263-3.938 1.254-2.439 2.742-4.75 4.442-6.901 2.33-3.219 3.23-5.331 2.772-9.054-.742 1.6-2.246 2.715-3.994 2.96-.414.077-.677.02-.616-.5.04-.344.023-.695.031-1.042-.008-1.934-.002-3.869-.035-5.803-.007-.471.213-.497.558-.434.73.122 1.433.373 2.075.742.921.58 1.646 1.424 2.08 2.422.78-.082 1.564-.094 2.344-.036h.788c.005 1.036.01 2.073.017 3.11l-.02 11.078c-.002 2.128.002 4.257 0 6.386 0 .286-.05.552.405.548 2.346-.017 4.693-.01 7.04-.004.264 0 .387-.066.397-.361.094-2.167.912-4.24 2.321-5.887 1.142-1.244 2.583-2.175 4.186-2.704.553-.166 1.123-.278 1.685-.414 2.044-.096 4.093-.062 6.134.1 2.02.442 3.854 1.495 5.253 3.018.768.964 1.385 2.039 1.83 3.188.645 1.783.458 3.625.525 5.455.024.657-.194.855-.8.708h-2.346l-2.35.044-3.136.001h-7.83l-.775-.043-1.58.004c.001-.037 0-.075-.006-.112l-.116.109-2.22-.003c-.258.01-.517.024-.776.025-2.613.008-5.227.014-7.84.02H3.936l-1.563-.045c-.524.014-1.048.03-1.57.045-.67.11-.83-.187-.8-.826.056-1.15.63-.855.06-1.856z" transform="translate(-516 -318) translate(511 318) translate(5) translate(12 16)"/>
                            <path fill="#1B1D28" d="M11.77 6.271c.005 1.037.01 2.074.017 3.11.973 0 1.946.006 2.919-.004.699-.007.964-.283.976-.99.008-.41.004-.821.001-1.232.034-.242-.045-.486-.214-.662-.169-.176-.41-.265-.653-.241-1.015-.006-2.03.011-3.046.02z" transform="translate(-516 -318) translate(511 318) translate(5) translate(12 16)"/>
                            <path fill="#EC2737" d="M37.223 5.277c.015-.59-.246-1.152-.707-1.52-1.294-1.085-2.587-2.17-3.878-3.258-.334-.289-.762-.446-1.204-.443-1.87-.016-3.74-.04-5.61-.054-.503-.024-.992.165-1.348.52-.356.356-.545.845-.522 1.347-.003 2.291-.003 4.583-.001 6.875v6.874c-.03.796.474 1.515 1.233 1.756.212.064.433.095.654.092 3.166.005 6.332.006 9.499.003.509.029 1.005-.161 1.365-.522.36-.36.548-.858.517-1.366l.002-10.304z" transform="translate(-516 -318) translate(511 318) translate(5) translate(12 16)"/>
                            <path fill="#FFF" d="M30.304 11c-.336 0-.658-.128-.894-.358L28.2 9.473c-.267-.258-.267-.676 0-.933.267-.258.7-.258.966 0l1.138 1.098 2.531-2.446c.267-.257.699-.256.965.001.266.258.267.675.001.933l-2.604 2.516c-.236.23-.558.359-.893.358z" transform="translate(-516 -318) translate(511 318) translate(5) translate(12 16)"/>
                        </g>
                        <path fill="#FFF" d="M3.936 30.537c.01 1.291 1.059 2.333 2.35 2.333 1.29 0 2.34-1.042 2.349-2.333H3.936zM28.217 30.538c.01 1.288 1.058 2.328 2.347 2.328s2.336-1.04 2.347-2.328h-4.694z" transform="translate(-516 -318) translate(511 318) translate(5) translate(12 16)"/>
                    </g>
                </g>
            </g>
        </g>
    </g>
</svg>
