<svg xmlns="http://www.w3.org/2000/svg" width="54" height="54" viewBox="0 0 54 54">
    <g fill="none" fill-rule="evenodd">
        <g>
            <g>
                <g>
                    <g>
                        <g>
                            <g fill="#E5EEFA" transform="translate(-275 -192) translate(20 112) translate(0 80) translate(242) translate(13)">
                                <circle cx="27" cy="27" r="27"/>
                            </g>
                            <g>
                                <path fill="#EE2737" d="M25.93 19.734v4.073c0 1.771-1.446 3.055-3.04 3.055-5.865 0-11.588-2.773-15.844-7.013C2.79 15.61 0 9.905 0 4.04 0 2.354 1.37.999 3.055.999h4.073c.438 0 .827.28.965.695l2.036 6.095c.1.299.056.626-.118.888l-1.727 2.59c.655 1.373 1.813 2.873 3.15 4.194 1.338 1.32 2.855 2.462 4.228 3.116l2.59-1.727c.263-.173.59-.218.888-.118l6.11 2.037c.415.137.68.526.68.965" transform="translate(-275 -192) translate(20 112) translate(0 80) translate(242) translate(13) translate(10.8 14.04)"/>
                                <path fill="#2F3043" d="M30.922 0H15.338c-.776 0-1.406.63-1.406 1.406v6c0 .777.63 1.406 1.406 1.406h1.789v3.856l2.937-3.856h10.858c.776 0 1.406-.63 1.406-1.406v-6C32.328.63 31.698 0 30.922 0" transform="translate(-275 -192) translate(20 112) translate(0 80) translate(242) translate(13) translate(10.8 14.04)"/>
                                <path fill="#FFF" d="M19.347 4.361c0 .455-.368.824-.823.824-.455 0-.824-.37-.824-.824 0-.455.369-.824.824-.824.455 0 .823.37.823.824M22.422 4.361c0 .455-.368.824-.823.824-.455 0-.824-.37-.824-.824 0-.455.369-.824.824-.824.455 0 .823.37.823.824M25.497 4.361c0 .455-.368.824-.823.824-.455 0-.824-.37-.824-.824 0-.455.369-.824.824-.824.455 0 .823.37.823.824M28.572 4.361c0 .455-.368.824-.823.824-.455 0-.824-.37-.824-.824 0-.455.369-.824.824-.824.455 0 .823.37.823.824" transform="translate(-275 -192) translate(20 112) translate(0 80) translate(242) translate(13) translate(10.8 14.04)"/>
                            </g>
                        </g>
                    </g>
                </g>
            </g>
        </g>
    </g>
</svg>
