<svg xmlns="http://www.w3.org/2000/svg" width="50" height="50" viewBox="0 0 50 50">
    <defs>
        <radialGradient id="5f8otwik0a" cx="50%" cy="50%" r="64.148%" fx="50%" fy="50%" gradientTransform="matrix(-.66054 0 0 -1 .83 1)">
            <stop offset="63.633%" stop-color="#FFC300"/>
            <stop offset="100%" stop-color="#FFB900"/>
        </radialGradient>
    </defs>
    <g fill="none" fill-rule="evenodd">
        <g>
            <g>
                <g>
                    <g fill="#DFEBFB" transform="translate(-999 -553) translate(999 386) translate(0 167)">
                        <circle cx="25" cy="25" r="25"/>
                    </g>
                    <g fill-rule="nonzero">
                        <g>
                            <path fill="#1B1D28" d="M14.806 12.815c2.644.005 5.288.012 7.933.02.068.001.14-.012.212-.018.037-.004.075-.004.113 0 .072.006.144.02.212.019 2.644-.012 5.289-.02 7.933-.021.185.02.353.119.462.27.11.15.151.34.114.523-.014.238 0 .477-.003.716-.005.634-.182.808-.83.81-1.449.006-2.897.01-4.346.014-.218-.233-.45-.452-.693-.657v.222h-6.064c-.15.138-.298.283-.44.435l-4.346-.013c-.648-.003-.826-.177-.83-.811-.002-.239.01-.478-.003-.716-.037-.183.004-.373.113-.523.11-.151.278-.25.463-.27zM20.748 22.454h-2.306c.01 2.22 1.811 4.014 4.031 4.014 2.22 0 4.022-1.794 4.031-4.014H24.2c-.008.948-.778 1.712-1.726 1.712-.947 0-1.718-.764-1.725-1.712zM1.745 22.42l-1.155.034C.6 24.674 2.4 26.47 4.62 26.47c2.22 0 4.023-1.795 4.032-4.015H6.349c-.007.949-.778 1.715-1.727 1.715-.95 0-1.72-.766-1.728-1.715l-1.15-.033z" transform="translate(-999 -553) translate(999 386) translate(0 167) translate(8.824 11.765)"/>
                            <path fill="url(#5f8otwik0a)" d="M.046 20.482c-.148-.26.173-1.357.928-2.895.922-1.793 2.016-3.493 3.266-5.075 1.714-2.366 2.375-3.92 2.039-6.657-.546 1.177-1.652 1.997-2.937 2.176-.304.057-.498.015-.453-.367.03-.253.017-.51.023-.766-.006-1.423-.002-2.845-.026-4.267-.005-.347.157-.365.41-.32.537.09 1.054.275 1.526.546.677.427 1.21 1.047 1.53 1.781.572-.06 1.15-.069 1.723-.026h.58l.012 2.286-.014 8.146c-.002 1.565 0 3.13 0 4.696 0 .21-.038.405.297.403 1.725-.013 3.45-.008 5.177-.004.194.001.284-.048.292-.265.069-1.593.67-3.117 1.706-4.329.84-.914 1.9-1.598 3.078-1.988.407-.122.825-.204 1.239-.304 1.503-.07 3.01-.046 4.51.073 1.485.325 2.834 1.1 3.862 2.22.565.708 1.019 1.499 1.347 2.343.474 1.311.336 2.666.385 4.012.018.483-.142.628-.588.52h-1.725l-1.728.033H18.442l-.57-.031c-.387 0-.775.001-1.161.003 0-.028-.001-.055-.005-.082l-.086.08-1.632-.002c-.19.006-.38.017-.57.018l-5.765.014H2.894l-1.15-.033c-.385.01-.77.022-1.154.033-.492.082-.61-.137-.587-.607.04-.846.463-.629.043-1.365z" transform="translate(-999 -553) translate(999 386) translate(0 167) translate(8.824 11.765)"/>
                            <path fill="#1B1D28" d="M8.654 4.611l.013 2.287c.715 0 1.43.005 2.146-.003.514-.005.709-.208.718-.728.006-.302.003-.604 0-.906.026-.178-.032-.357-.157-.487-.124-.13-.3-.195-.48-.177-.746-.004-1.493.008-2.24.014z" transform="translate(-999 -553) translate(999 386) translate(0 167) translate(8.824 11.765)"/>
                            <path fill="#EC2737" d="M27.37 3.88c.011-.433-.181-.847-.52-1.118-.952-.797-1.902-1.596-2.851-2.395-.246-.212-.56-.328-.886-.326-1.375-.012-2.75-.029-4.125-.04-.37-.017-.73.122-.99.383-.263.262-.402.62-.385.99-.002 1.685-.002 3.37 0 5.055v5.055c-.023.585.348 1.114.906 1.291.156.047.318.07.481.068 2.328.004 4.656.004 6.985.002.373.021.739-.119 1.003-.384.264-.265.403-.63.38-1.005l.002-7.576z" transform="translate(-999 -553) translate(999 386) translate(0 167) translate(8.824 11.765)"/>
                            <path fill="#FFF" d="M22.282 8.088c-.247 0-.483-.094-.657-.263l-.89-.86c-.196-.189-.196-.496 0-.686.197-.19.515-.19.71 0l.837.808 1.861-1.799c.197-.188.514-.188.71.001.196.19.196.496.001.686l-1.915 1.85c-.174.17-.41.264-.657.263z" transform="translate(-999 -553) translate(999 386) translate(0 167) translate(8.824 11.765)"/>
                        </g>
                        <path fill="#FFF" d="M2.894 22.454c.007.95.779 1.715 1.728 1.715.95 0 1.72-.766 1.727-1.715H2.894zM20.748 22.454c.007.948.778 1.712 1.725 1.712.948 0 1.718-.764 1.726-1.712h-3.451z" transform="translate(-999 -553) translate(999 386) translate(0 167) translate(8.824 11.765)"/>
                    </g>
                </g>
            </g>
        </g>
    </g>
</svg>
