<svg xmlns="http://www.w3.org/2000/svg" width="16" height="18" viewBox="0 0 16 18">
    <g fill="none" fill-rule="evenodd">
        <g>
            <g>
                <g>
                    <g transform="translate(-1303 -386) translate(936 170) translate(0 64) translate(367 152.032)">
                        <path fill="#FFC600" d="M0 6.014h15.112v9.707c0 .404-.328.731-.732.731H.731c-.404 0-.731-.327-.731-.731V6.014z"/>
                        <path fill="#FF8E75" d="M0 2h15.112v2.674c0 .74-.6 1.34-1.341 1.34H1.341C.6 6.014 0 5.414 0 4.674V2z" transform="matrix(1 0 0 -1 0 8.014)"/>
                        <rect width="2.315" height="1.032" x="1.462" y="3.147" fill="#CB624B" rx=".516"/>
                        <path fill="#2F3043" d="M1.563 2.025h2.663v1.097H1.563c-.303 0-.549-.246-.549-.549 0-.302.246-.548.549-.548z" transform="rotate(90 2.62 2.573)"/>
                        <rect width="2.315" height="1.032" x="4.753" y="3.147" fill="#CB624B" rx=".516"/>
                        <rect width="2.315" height="1.032" x="8.043" y="3.147" fill="#CB624B" rx=".516"/>
                        <rect width="2.315" height="1.032" x="11.334" y="3.147" fill="#CB624B" rx=".516"/>
                        <path fill="#2F3043" d="M4.853 2.025h2.663v1.097H4.853c-.303 0-.548-.246-.548-.549 0-.302.245-.548.548-.548z" transform="rotate(90 5.91 2.573)"/>
                        <path fill="#2F3043" d="M8.144 2.025h2.663v1.097H8.144c-.303 0-.549-.246-.549-.549 0-.302.246-.548.549-.548z" transform="rotate(90 9.201 2.573)"/>
                        <path fill="#2F3043" d="M11.434 2.025h2.663v1.097h-2.663c-.303 0-.548-.246-.548-.549 0-.302.245-.548.548-.548z" transform="rotate(90 12.491 2.573)"/>
                        <path fill="#FFF4CC" d="M9.1 16.452c1.067-.903 1.875-2.642 2.424-5.219.331.386 1.148 1.384 3.588.692-1.481 1.128-3.485 2.636-6.012 4.527z"/>
                    </g>
                </g>
            </g>
        </g>
    </g>
</svg>
